<?xml version="1.0" encoding="UTF-8"?>
<svg version="1.1" xmlns="http://www.w3.org/2000/svg" width="512" height="512">
<path d="M0 0 C5.29529001 5.23055542 7.5555718 10.43082944 9.59765625 17.578125 C9.59765625 25.168125 9.59765625 32.758125 9.59765625 40.578125 C32.69765625 40.578125 55.79765625 40.578125 79.59765625 40.578125 C79.59765625 32.988125 79.59765625 25.398125 79.59765625 17.578125 C81.75329275 8.32685169 85.61508499 2.36818856 93.71875 -2.765625 C101.4573092 -6.86164877 109.22437106 -7.50357558 117.66015625 -5.234375 C126.2632719 -2.37545295 131.4672776 2.4708183 135.59765625 10.578125 C137.59765625 17.578125 137.59765625 17.578125 137.59765625 40.578125 C160.69765625 40.578125 183.79765625 40.578125 207.59765625 40.578125 C207.59765625 32.988125 207.59765625 25.398125 207.59765625 17.578125 C209.75329275 8.32685169 213.61508499 2.36818856 221.71875 -2.765625 C229.4573092 -6.86164877 237.22437106 -7.50357558 245.66015625 -5.234375 C254.2632719 -2.37545295 259.4672776 2.4708183 263.59765625 10.578125 C265.99401478 16.86352331 265.83026675 22.8479127 265.72265625 29.515625 C265.71363281 30.58103516 265.70460938 31.64644531 265.6953125 32.74414062 C265.67189039 35.35570534 265.63909077 37.96679437 265.59765625 40.578125 C266.5266272 40.55455933 266.5266272 40.55455933 267.47436523 40.53051758 C270.3278663 40.4674847 273.18122016 40.42892063 276.03515625 40.390625 C277.49598633 40.35291992 277.49598633 40.35291992 278.98632812 40.31445312 C285.61078296 40.24798702 293.01822214 40.37402797 298.22045898 45.03076172 C301.53268292 48.90255832 302.72026073 51.40644459 302.75878906 56.39160156 C302.76839661 57.3931427 302.77800415 58.39468384 302.78790283 59.42657471 C302.79427765 61.05620148 302.79427765 61.05620148 302.80078125 62.71875 C302.80648132 63.83368835 302.8121814 64.94862671 302.8180542 66.09735107 C302.82751444 68.46121265 302.83404223 70.82508747 302.83789062 73.18896484 C302.84757914 76.79938943 302.87858656 80.40924078 302.91015625 84.01953125 C302.91668789 86.31510078 302.92193773 88.61067439 302.92578125 90.90625 C302.93812805 91.98457092 302.95047485 93.06289185 302.9631958 94.17388916 C302.94285942 101.0460841 302.28411456 105.65462625 297.47265625 110.890625 C294.58405701 112.58610716 293.16484794 112.88708851 289.91796875 113.18359375 C289.10859863 113.2611792 288.29922852 113.33876465 287.46533203 113.41870117 C286.54083252 113.49761597 286.54083252 113.49761597 285.59765625 113.578125 C285.59917513 114.14140767 285.60069401 114.70469033 285.60225892 115.28504217 C285.69181766 148.68744714 285.76042591 182.08982197 285.80191757 215.49232014 C285.80692025 219.5051342 285.81209755 223.51794802 285.81738281 227.53076172 C285.81843205 228.32962337 285.8194813 229.12848503 285.82056233 229.95155461 C285.83795624 242.87788974 285.86948833 255.80415354 285.90626743 268.73044638 C285.94370511 281.99909583 285.96589807 295.26770797 285.97401023 308.53640807 C285.97949215 316.72053945 285.99679133 324.90446919 286.02932212 333.08853848 C286.05050493 338.70458636 286.0568478 344.32053037 286.05166176 349.93661527 C286.04910578 353.17438723 286.05516111 356.41173447 286.07447815 359.64945984 C286.09443327 363.16700642 286.0895743 366.68369626 286.07867432 370.20126343 C286.09032568 371.21490916 286.10197705 372.22855489 286.11398149 373.27291715 C286.0361362 382.59242976 283.17841299 391.72876594 276.59765625 398.578125 C267.18948787 406.49293332 257.13516643 408.03046755 245.14916992 407.95907593 C243.93078273 407.9637559 242.71239553 407.96843587 241.45708752 407.97325766 C238.10113802 407.98310285 234.74569738 407.97962836 231.38977957 407.97029901 C227.76053778 407.96348115 224.13133885 407.97400324 220.50210571 407.98223877 C213.40270395 407.99554924 206.30339756 407.99271038 199.20399213 407.98400085 C193.43199715 407.97721411 187.66002883 407.97631186 181.88803101 407.9795723 C180.65380772 407.98026184 180.65380772 407.98026184 179.39465064 407.98096532 C177.72289728 407.98192454 176.05114394 407.98289718 174.3793906 407.9838831 C158.71881047 407.99242912 143.05828311 407.98261523 127.39771163 407.966482 C113.97247145 407.95307953 100.54730909 407.95540785 87.12207031 407.96923828 C71.51592001 407.98530802 55.9098159 407.99160522 40.30365849 407.98240149 C38.6381995 407.98144589 36.9727405 407.98050277 35.30728149 407.9795723 C34.48793363 407.97910947 33.66858577 407.97864664 32.82440919 407.97816979 C27.06215787 407.97558408 21.29993597 407.97994184 15.53768921 407.98701096 C8.51140225 407.99544166 1.48521578 407.9931129 -5.54105973 407.97716872 C-9.12309564 407.96930706 -12.70496424 407.96615823 -16.28699875 407.97611618 C-20.17604539 407.98676377 -24.06482057 407.97401419 -27.95385742 407.95907593 C-29.0774104 407.96576809 -30.20096338 407.97246026 -31.35856342 407.97935522 C-42.29671719 407.89799735 -50.63505933 405.64208205 -58.96484375 398.328125 C-66.55039087 389.77007183 -68.70695552 381.9641092 -68.64285278 370.68228149 C-68.64456163 369.58276291 -68.64627048 368.48324433 -68.64803112 367.350407 C-68.65132591 363.6653418 -68.64032227 359.98045859 -68.62939453 356.29541016 C-68.62883042 353.65416046 -68.62905891 351.01292192 -68.63027954 348.37167358 C-68.63132738 342.68484233 -68.62506136 336.99805703 -68.61380386 331.31123734 C-68.59753811 323.08909462 -68.59233976 314.8669741 -68.58982788 306.64481704 C-68.58545247 293.30437715 -68.57214753 279.96396175 -68.55322266 266.62353516 C-68.53485988 253.66585411 -68.52070532 240.70817972 -68.51220703 227.75048828 C-68.51168158 226.95154981 -68.51115614 226.15261133 -68.51061477 225.3294626 C-68.50800466 221.32135535 -68.50547725 217.31324806 -68.50299096 213.30514073 C-68.48226324 180.06278433 -68.44704189 146.82045794 -68.40234375 113.578125 C-69.31705444 113.50899902 -69.31705444 113.50899902 -70.25024414 113.43847656 C-71.05453857 113.3659668 -71.85883301 113.29345703 -72.6875 113.21875 C-73.48293213 113.15204102 -74.27836426 113.08533203 -75.09790039 113.01660156 C-79.01784514 112.27073645 -80.69810838 110.48023125 -83.40234375 107.578125 C-85.09579878 104.0937149 -85.65934316 101.28020542 -85.69287109 97.42407227 C-85.71201065 95.92210045 -85.71201065 95.92210045 -85.73153687 94.38978577 C-85.73376251 93.31885178 -85.73598816 92.24791779 -85.73828125 91.14453125 C-85.74493805 90.03383774 -85.75159485 88.92314423 -85.75845337 87.77879333 C-85.76856587 85.43286798 -85.77327082 83.08691393 -85.77294922 80.7409668 C-85.77732388 77.15690673 -85.81366428 73.57407682 -85.8515625 69.99023438 C-85.85743064 67.70833754 -85.86140005 65.42643486 -85.86328125 63.14453125 C-85.87765228 62.07562149 -85.89202332 61.00671173 -85.90682983 59.90541077 C-85.86945628 53.80449908 -85.51404456 50.19901332 -81.40234375 45.578125 C-76.06569005 41.37692954 -71.76381141 40.44150823 -65.1015625 40.48046875 C-64.12509766 40.48369141 -63.14863281 40.48691406 -62.14257812 40.49023438 C-61.13517578 40.49861328 -60.12777344 40.50699219 -59.08984375 40.515625 C-58.06310547 40.52013672 -57.03636719 40.52464844 -55.97851562 40.52929688 C-53.45306493 40.54104316 -50.9277347 40.55746935 -48.40234375 40.578125 C-48.42329102 39.9389917 -48.44423828 39.2998584 -48.46582031 38.64135742 C-49.23991782 11.4720047 -49.23991782 11.4720047 -40.65234375 2.140625 C-29.22792722 -8.24134011 -12.49778087 -9.80913298 0 0 Z M-27.40234375 13.578125 C-32.12812461 18.88187906 -31.89270456 23.57731692 -31.65234375 30.453125 C-31.56984375 33.794375 -31.48734375 37.135625 -31.40234375 40.578125 C-23.48234375 40.578125 -15.56234375 40.578125 -7.40234375 40.578125 C-7.31984375 37.236875 -7.23734375 33.895625 -7.15234375 30.453125 C-7.09771973 28.89053955 -7.09771973 28.89053955 -7.04199219 27.29638672 C-6.9714922 21.38462179 -7.42177363 18.04552743 -11.40234375 13.578125 C-17.3961011 9.83202666 -21.4085864 9.83202666 -27.40234375 13.578125 Z M100.59765625 13.578125 C95.87187539 18.88187906 96.10729544 23.57731692 96.34765625 30.453125 C96.43015625 33.794375 96.51265625 37.135625 96.59765625 40.578125 C104.51765625 40.578125 112.43765625 40.578125 120.59765625 40.578125 C120.68015625 37.236875 120.76265625 33.895625 120.84765625 30.453125 C120.90228027 28.89053955 120.90228027 28.89053955 120.95800781 27.29638672 C121.0285078 21.38462179 120.57822637 18.04552743 116.59765625 13.578125 C110.6038989 9.83202666 106.5914136 9.83202666 100.59765625 13.578125 Z M228.59765625 13.578125 C223.87187539 18.88187906 224.10729544 23.57731692 224.34765625 30.453125 C224.43015625 33.794375 224.51265625 37.135625 224.59765625 40.578125 C232.51765625 40.578125 240.43765625 40.578125 248.59765625 40.578125 C248.68015625 37.236875 248.76265625 33.895625 248.84765625 30.453125 C248.90228027 28.89053955 248.90228027 28.89053955 248.95800781 27.29638672 C249.0285078 21.38462179 248.57822637 18.04552743 244.59765625 13.578125 C238.6038989 9.83202666 234.5914136 9.83202666 228.59765625 13.578125 Z " fill="#F9F7F8" transform="translate(147.40234375,51.421875)"/>
<path d="M0 0 C5.29529001 5.23055542 7.5555718 10.43082944 9.59765625 17.578125 C9.59765625 25.168125 9.59765625 32.758125 9.59765625 40.578125 C32.69765625 40.578125 55.79765625 40.578125 79.59765625 40.578125 C79.59765625 32.988125 79.59765625 25.398125 79.59765625 17.578125 C81.75329275 8.32685169 85.61508499 2.36818856 93.71875 -2.765625 C101.4573092 -6.86164877 109.22437106 -7.50357558 117.66015625 -5.234375 C126.2632719 -2.37545295 131.4672776 2.4708183 135.59765625 10.578125 C137.59765625 17.578125 137.59765625 17.578125 137.59765625 40.578125 C160.69765625 40.578125 183.79765625 40.578125 207.59765625 40.578125 C207.59765625 32.988125 207.59765625 25.398125 207.59765625 17.578125 C209.75329275 8.32685169 213.61508499 2.36818856 221.71875 -2.765625 C229.4573092 -6.86164877 237.22437106 -7.50357558 245.66015625 -5.234375 C254.2632719 -2.37545295 259.4672776 2.4708183 263.59765625 10.578125 C265.99401478 16.86352331 265.83026675 22.8479127 265.72265625 29.515625 C265.71363281 30.58103516 265.70460938 31.64644531 265.6953125 32.74414062 C265.67189039 35.35570534 265.63909077 37.96679437 265.59765625 40.578125 C266.5266272 40.55455933 266.5266272 40.55455933 267.47436523 40.53051758 C270.3278663 40.4674847 273.18122016 40.42892063 276.03515625 40.390625 C277.49598633 40.35291992 277.49598633 40.35291992 278.98632812 40.31445312 C285.61078296 40.24798702 293.01822214 40.37402797 298.22045898 45.03076172 C301.53268292 48.90255832 302.72026073 51.40644459 302.75878906 56.39160156 C302.76839661 57.3931427 302.77800415 58.39468384 302.78790283 59.42657471 C302.79427765 61.05620148 302.79427765 61.05620148 302.80078125 62.71875 C302.80648132 63.83368835 302.8121814 64.94862671 302.8180542 66.09735107 C302.82751444 68.46121265 302.83404223 70.82508747 302.83789062 73.18896484 C302.84757914 76.79938943 302.87858656 80.40924078 302.91015625 84.01953125 C302.91668789 86.31510078 302.92193773 88.61067439 302.92578125 90.90625 C302.93812805 91.98457092 302.95047485 93.06289185 302.9631958 94.17388916 C302.94679541 99.71601087 302.8107082 103.83431755 299.59765625 108.578125 C294.98097085 112.84855899 291.71001106 113.70259591 285.52931499 113.70955276 C283.6135214 113.71531448 283.6135214 113.71531448 281.65902489 113.7211926 C280.2335139 113.72041231 278.80800295 113.71953351 277.38249207 113.71856689 C275.87450135 113.72114974 274.36651132 113.72416267 272.85852224 113.7275703 C268.70390452 113.73565296 264.54930407 113.73743057 260.39467943 113.73816776 C255.91808823 113.74001611 251.44150605 113.74756231 246.96492004 113.75430298 C237.17161996 113.76789559 227.37832396 113.7739124 217.58501601 113.77831364 C211.47269017 113.78107436 205.36036592 113.78531139 199.24804115 113.78981781 C182.33226591 113.80201145 165.41649194 113.81231073 148.50071239 113.8156929 C147.41768141 113.81591247 146.33465043 113.81613203 145.21880032 113.81635825 C144.13314642 113.81657653 143.04749251 113.81679481 141.92894 113.8170197 C139.72891247 113.81746317 137.52888495 113.81790973 135.32885742 113.81835938 C133.69191546 113.81869152 133.69191546 113.81869152 132.02190397 113.81903037 C114.33371268 113.82297952 96.64556256 113.84043666 78.95738717 113.8637189 C60.8070024 113.88741715 42.6566383 113.89989405 24.5062378 113.90106082 C14.31148526 113.90197841 4.11678636 113.90775198 -6.07795143 113.92588043 C-14.75799357 113.9412608 -23.43796549 113.94641409 -32.11801866 113.93814233 C-36.54809367 113.93422856 -40.97802717 113.93520078 -45.40808487 113.94919968 C-49.46263872 113.96189503 -53.51694411 113.96077971 -57.5714974 113.94860896 C-59.03920565 113.94664437 -60.50693123 113.94976545 -61.97461507 113.95845333 C-63.96854105 113.9695101 -65.96254866 113.96028709 -67.95647907 113.9500618 C-69.06439566 113.95065889 -70.17231225 113.95125597 -71.31380206 113.95187116 C-76.17054332 113.36415418 -79.40935184 111.65162977 -82.71484375 108.078125 C-85.11754766 104.51856365 -85.53250721 101.84409035 -85.5793457 97.65112305 C-85.59218094 96.64965744 -85.60501617 95.64819183 -85.61824036 94.61637878 C-85.62932076 92.99449394 -85.62932076 92.99449394 -85.640625 91.33984375 C-85.64869675 90.22632034 -85.65676849 89.11279694 -85.66508484 87.9655304 C-85.67892103 85.60765132 -85.68964526 83.24975226 -85.69750977 80.8918457 C-85.71472656 77.29014066 -85.75861875 73.68935252 -85.80273438 70.08789062 C-85.81286108 67.79688175 -85.82137725 65.50586507 -85.828125 63.21484375 C-85.84563309 62.13965988 -85.86314117 61.06447601 -85.88117981 59.95671082 C-85.86346045 53.83383239 -85.53721675 50.21189722 -81.40234375 45.578125 C-76.06569005 41.37692954 -71.76381141 40.44150823 -65.1015625 40.48046875 C-64.12509766 40.48369141 -63.14863281 40.48691406 -62.14257812 40.49023438 C-61.13517578 40.49861328 -60.12777344 40.50699219 -59.08984375 40.515625 C-58.06310547 40.52013672 -57.03636719 40.52464844 -55.97851562 40.52929688 C-53.45306493 40.54104316 -50.9277347 40.55746935 -48.40234375 40.578125 C-48.42329102 39.9389917 -48.44423828 39.2998584 -48.46582031 38.64135742 C-49.23991782 11.4720047 -49.23991782 11.4720047 -40.65234375 2.140625 C-29.22792722 -8.24134011 -12.49778087 -9.80913298 0 0 Z M-27.40234375 13.578125 C-32.12812461 18.88187906 -31.89270456 23.57731692 -31.65234375 30.453125 C-31.56984375 33.794375 -31.48734375 37.135625 -31.40234375 40.578125 C-23.48234375 40.578125 -15.56234375 40.578125 -7.40234375 40.578125 C-7.31984375 37.236875 -7.23734375 33.895625 -7.15234375 30.453125 C-7.09771973 28.89053955 -7.09771973 28.89053955 -7.04199219 27.29638672 C-6.9714922 21.38462179 -7.42177363 18.04552743 -11.40234375 13.578125 C-17.3961011 9.83202666 -21.4085864 9.83202666 -27.40234375 13.578125 Z M100.59765625 13.578125 C95.87187539 18.88187906 96.10729544 23.57731692 96.34765625 30.453125 C96.43015625 33.794375 96.51265625 37.135625 96.59765625 40.578125 C104.51765625 40.578125 112.43765625 40.578125 120.59765625 40.578125 C120.68015625 37.236875 120.76265625 33.895625 120.84765625 30.453125 C120.90228027 28.89053955 120.90228027 28.89053955 120.95800781 27.29638672 C121.0285078 21.38462179 120.57822637 18.04552743 116.59765625 13.578125 C110.6038989 9.83202666 106.5914136 9.83202666 100.59765625 13.578125 Z M228.59765625 13.578125 C223.87187539 18.88187906 224.10729544 23.57731692 224.34765625 30.453125 C224.43015625 33.794375 224.51265625 37.135625 224.59765625 40.578125 C232.51765625 40.578125 240.43765625 40.578125 248.59765625 40.578125 C248.68015625 37.236875 248.76265625 33.895625 248.84765625 30.453125 C248.90228027 28.89053955 248.90228027 28.89053955 248.95800781 27.29638672 C249.0285078 21.38462179 248.57822637 18.04552743 244.59765625 13.578125 C238.6038989 9.83202666 234.5914136 9.83202666 228.59765625 13.578125 Z " fill="#FA7088" transform="translate(147.40234375,51.421875)"/>
<path d="M0 0 C4.74631185 1.04418861 6.55505733 3.70061597 9.125 7.6875 C15.39980258 18.99632499 18.83876089 31.73209661 17.125 44.6875 C15.3273144 49.26092237 13.20178477 51.96964349 9.125 54.6875 C8.61315355 57.69164569 8.61315355 57.69164569 8.61328125 61.2265625 C8.56361206 62.98540771 8.56361206 62.98540771 8.51293945 64.77978516 C8.48804443 66.27558105 8.46314941 67.77137695 8.4375 69.3125 C8.334375 74.05625 8.23125 78.8 8.125 83.6875 C26.275 83.6875 44.425 83.6875 63.125 83.6875 C63.063125 79.005625 63.00125 74.32375 62.9375 69.5 C62.93081299 68.03151611 62.92412598 66.56303223 62.91723633 65.05004883 C62.88911865 63.88497803 62.86100098 62.71990723 62.83203125 61.51953125 C62.8163208 60.33077393 62.80061035 59.1420166 62.78442383 57.91723633 C61.94601626 53.81087066 60.24423484 52.38939332 57.125 49.6875 C52.77098944 43.799582 53.49698278 37.7227041 54.125 30.6875 C56.07401157 19.79726022 59.53221134 8.20197792 68.125 0.6875 C71 0 71 0 74.125 0.6875 C82.76475844 7.33683308 86.47305101 20.4101074 88.125 30.6875 C88.88770331 38.38996525 89.18006134 44.78561346 84.51171875 51.234375 C83.125 52.6875 83.125 52.6875 80.125 54.6875 C79.61315355 57.69164569 79.61315355 57.69164569 79.61328125 61.2265625 C79.56361206 62.98540771 79.56361206 62.98540771 79.51293945 64.77978516 C79.48804443 66.27558105 79.46314941 67.77137695 79.4375 69.3125 C79.334375 74.05625 79.23125 78.8 79.125 83.6875 C97.275 83.6875 115.425 83.6875 134.125 83.6875 C134.063125 79.005625 134.00125 74.32375 133.9375 69.5 C133.93081299 68.03151611 133.92412598 66.56303223 133.91723633 65.05004883 C133.88911865 63.88497803 133.86100098 62.71990723 133.83203125 61.51953125 C133.80846558 59.73639526 133.80846558 59.73639526 133.78442383 57.91723633 C132.94601626 53.81087066 131.24423484 52.38939332 128.125 49.6875 C123.77098944 43.799582 124.49698278 37.7227041 125.125 30.6875 C127.07401157 19.79726022 130.53221134 8.20197792 139.125 0.6875 C142 0 142 0 145.125 0.6875 C153.76475844 7.33683308 157.47305101 20.4101074 159.125 30.6875 C159.88770331 38.38996525 160.18006134 44.78561346 155.51171875 51.234375 C154.125 52.6875 154.125 52.6875 151.125 54.6875 C150.61315355 57.69164569 150.61315355 57.69164569 150.61328125 61.2265625 C150.57783203 62.52851563 150.54238281 63.83046875 150.50585938 65.171875 C150.48275769 66.55207809 150.45997536 67.93228657 150.4375 69.3125 C150.40433555 70.70055352 150.3698467 72.08857607 150.33398438 73.4765625 C150.25125885 76.88012707 150.18218743 80.2834259 150.125 83.6875 C151.06166504 83.65922119 151.99833008 83.63094238 152.96337891 83.60180664 C154.20522949 83.57981201 155.44708008 83.55781738 156.7265625 83.53515625 C157.95197754 83.50687744 159.17739258 83.47859863 160.43994141 83.44946289 C168.61733158 83.97768307 175.07800463 88.16644399 180.625 94 C184.05777925 98.29097407 186.64391846 102.37603518 188.125 107.6875 C188.41117188 108.615625 188.69734375 109.54375 188.9921875 110.5 C189.63086759 114.27312544 189.61646709 116.12479672 188.125 119.6875 C179.46918449 128.19446227 168.4032167 134.04253185 156.3125 134.0625 C155.54357422 134.08699219 154.77464844 134.11148438 153.98242188 134.13671875 C145.92902711 134.17749543 140.44203657 130.89478944 134.125 126.125 C124.97693217 119.67568138 117.40572373 118.64564972 106.125 119.6875 C98.88774793 121.29017838 93.42924532 125.37250736 87.66796875 129.8828125 C80.18972362 135.1899542 70.95469473 134.68193596 62.125 133.6875 C58.29848917 132.59001162 55.36922798 130.96753435 52.125 128.6875 C51.26390625 128.08679688 50.4028125 127.48609375 49.515625 126.8671875 C47.84102924 125.68307985 46.18234859 124.47586278 44.546875 123.23828125 C37.34655886 118.62775624 29.38309003 119.00863516 21.125 119.6875 C14.3655736 121.2359557 9.09483457 124.83493488 3.64453125 129.00390625 C-2.17755462 132.89432332 -7.33222406 134.2487009 -14.1875 134.1875 C-15.31007202 134.17891968 -15.31007202 134.17891968 -16.45532227 134.17016602 C-22.90800028 133.96273606 -27.53438371 132.37289104 -32.875 128.6875 C-34.22078125 127.76904297 -34.22078125 127.76904297 -35.59375 126.83203125 C-37.32714624 125.62413301 -39.04645321 124.39557628 -40.74609375 123.140625 C-42.90275993 121.52622173 -42.90275993 121.52622173 -45.875 120.6875 C-46.82105061 109.82543743 -44.78752101 102.34750983 -38.3046875 93.55859375 C-33.8254167 88.54916771 -28.2838948 85.55622151 -21.875 83.6875 C-18.23266602 83.48608398 -18.23266602 83.48608398 -14.50390625 83.55859375 C-12.63520874 83.58651001 -12.63520874 83.58651001 -10.72875977 83.61499023 C-9.31614868 83.65088257 -9.31614868 83.65088257 -7.875 83.6875 C-7.89447319 79.6481505 -7.94634494 75.61061333 -8.02758789 71.57202148 C-8.05070978 70.19974569 -8.06515003 68.82729391 -8.07055664 67.45483398 C-8.07988665 65.47615529 -8.12357019 63.49773376 -8.16796875 61.51953125 C-8.1836792 60.33077393 -8.19938965 59.1420166 -8.21557617 57.91723633 C-9.05398374 53.81087066 -10.75576516 52.38939332 -13.875 49.6875 C-18.22901056 43.799582 -17.50301722 37.7227041 -16.875 30.6875 C-15.1579537 21.09338256 -11.24655003 2.6893924 0 0 Z " fill="#FEC361" transform="translate(184.875,194.3125)"/>
<path d="M0 0 C0.09297796 10.12753427 0.16390546 20.25496578 0.20724869 30.38284111 C0.22805896 35.08643626 0.25625566 39.78973783 0.30175781 44.49316406 C0.34545098 49.03842144 0.36918636 53.58339772 0.37950897 58.12884903 C0.38685845 59.85668483 0.40120964 61.5845065 0.42292023 63.31222153 C0.56891076 75.41955493 -0.15362239 86.79254575 -9 96 C-18.40816838 103.91480832 -28.46248982 105.45234255 -40.44848633 105.38095093 C-42.27606712 105.38797089 -42.27606712 105.38797089 -44.14056873 105.39513266 C-47.49651823 105.40497785 -50.85195887 105.40150336 -54.20787668 105.39217401 C-57.83711847 105.38535615 -61.4663174 105.39587824 -65.09555054 105.40411377 C-72.1949523 105.41742424 -79.29425869 105.41458538 -86.39366412 105.40587585 C-92.1656591 105.39908911 -97.93762742 105.39818686 -103.70962524 105.4014473 C-104.94384853 105.40213684 -104.94384853 105.40213684 -106.20300561 105.40284032 C-107.87475897 105.40379954 -109.54651231 105.40477218 -111.21826565 105.4057581 C-126.87884578 105.41430412 -142.53937314 105.40449023 -158.19994462 105.388357 C-171.6251848 105.37495453 -185.05034716 105.37728285 -198.47558594 105.39111328 C-214.08173624 105.40718302 -229.68784035 105.41348022 -245.29399776 105.40427649 C-246.95945675 105.40332089 -248.62491575 105.40237777 -250.29037476 105.4014473 C-251.10972262 105.40098447 -251.92907048 105.40052164 -252.77324706 105.40004479 C-258.53549838 105.39745908 -264.29772028 105.40181684 -270.05996704 105.40888596 C-277.086254 105.41731666 -284.11244047 105.4149879 -291.13871598 105.39904372 C-294.72075189 105.39118206 -298.30262049 105.38803323 -301.884655 105.39799118 C-305.77370164 105.40863877 -309.66247682 105.39588919 -313.55151367 105.38095093 C-315.23684314 105.39098918 -315.23684314 105.39098918 -316.95621967 105.40123022 C-327.89437344 105.31987235 -336.23271558 103.06395705 -344.5625 95.75 C-351.56980903 87.84431802 -354.32715381 80.38291182 -354.1953125 69.8828125 C-354.1924826 69.02565643 -354.18965271 68.16850037 -354.18673706 67.28536987 C-354.17559999 64.56510068 -354.1505076 61.84516859 -354.125 59.125 C-354.11496182 57.27344228 -354.10583744 55.42187936 -354.09765625 53.5703125 C-354.07568188 49.0467464 -354.041197 44.52343023 -354 40 C-352.09652383 42.85521425 -351.2374213 45.08231658 -350.1875 48.3125 C-346.90270818 57.39047011 -341.46737695 61.77267797 -333 66 C-327.58962151 68.27346297 -322.68054264 68.28893366 -316.91294861 68.27415466 C-315.90018988 68.27939134 -314.88743115 68.28462802 -313.84398276 68.29002339 C-310.4518567 68.30501967 -307.05988154 68.30572847 -303.66772461 68.30639648 C-301.23475897 68.31401836 -298.80179574 68.3224459 -296.36883545 68.33161926 C-289.75902191 68.35357194 -283.14924405 68.36238664 -276.53940272 68.36744571 C-272.40746952 68.37070744 -268.27554558 68.3772329 -264.14361763 68.3844471 C-252.69043625 68.40401072 -241.23726346 68.42041563 -229.78406429 68.42332363 C-229.05161012 68.4235112 -228.31915596 68.42369877 -227.56450621 68.42389202 C-226.07980128 68.42425826 -224.59509636 68.42462196 -223.11039143 68.42498314 C-222.37343736 68.42516595 -221.63648328 68.42534876 -220.87719727 68.42553711 C-219.77040722 68.42580793 -219.77040722 68.42580793 -218.64125777 68.42608423 C-206.69696633 68.42962257 -194.75285554 68.45662462 -182.8086267 68.494035 C-170.52851958 68.53218759 -158.24850192 68.55148163 -145.96833426 68.55178314 C-139.08042713 68.55236625 -132.19273538 68.56076244 -125.30488396 68.58978081 C-118.8213645 68.61697106 -112.33815829 68.6181405 -105.854599 68.60212517 C-103.48152296 68.60031418 -101.10842221 68.60696944 -98.73539925 68.62294388 C-78.99669115 68.96529951 -78.99669115 68.96529951 -61.54533386 60.5431366 C-60.69530289 59.69254166 -59.84527191 58.84194672 -58.96948242 57.96557617 C-58.48647014 57.4932339 -58.00345785 57.02089163 -57.50580883 56.53423595 C-55.98566703 55.03994548 -54.49346388 53.52089709 -53 52 C-51.99088797 51.00381148 -50.97969611 50.00972549 -49.96646118 49.01773071 C-47.33548324 46.43302915 -44.72942878 43.82478036 -42.13161659 41.20678139 C-40.44002376 39.50215185 -38.74508644 37.8009068 -37.04936218 36.10038757 C-33.4675271 32.50728752 -29.88974081 28.91017326 -26.3125 25.3125 C-22.12452527 21.10088404 -17.93488594 16.89095001 -13.74107933 12.68514061 C-12.06990555 11.00747978 -10.40176146 9.32684567 -8.73371887 7.64607239 C-7.72146957 6.63019516 -6.70908219 5.61445549 -5.6965332 4.59887695 C-4.81117386 3.70828079 -3.92581451 2.81768463 -3.0136261 1.90010071 C-1 0 -1 0 0 0 Z " fill="#FA7088" transform="translate(433,354)"/>
<path d="M0 0 C3.90127814 2.41841059 7.79052029 4.85437042 11.61157227 7.39819336 C17.22057568 11.13046177 21.45891013 11.71656229 28.08203125 11.796875 C28.85998047 11.82587891 29.63792969 11.85488281 30.43945312 11.88476562 C38.56970803 11.97291685 44.01498418 8.73886409 50.39453125 3.921875 C59.54259908 -2.52744362 67.11380752 -3.55747528 78.39453125 -2.515625 C85.63178332 -0.91294662 91.09028593 3.16938236 96.8515625 7.6796875 C104.32980763 12.9868292 113.56483652 12.47881096 122.39453125 11.484375 C126.22190158 10.3866401 129.14948396 8.76437344 132.39453125 6.484375 C133.73837891 5.54851562 133.73837891 5.54851562 135.109375 4.59375 C136.84624531 3.3677239 138.56712116 2.11849271 140.265625 0.83984375 C142.39453125 -0.515625 142.39453125 -0.515625 145.39453125 -0.515625 C145.39453125 9.714375 145.39453125 19.944375 145.39453125 30.484375 C142.42453125 31.144375 139.45453125 31.804375 136.39453125 32.484375 C132.75016386 35.50842454 129.6252111 38.44481895 129.07568359 43.3034668 C129.0442627 44.41890869 129.0128418 45.53435059 128.98046875 46.68359375 C128.92246094 48.49633789 128.92246094 48.49633789 128.86328125 50.34570312 C128.83234375 51.60833984 128.80140625 52.87097656 128.76953125 54.171875 C128.71152344 56.08323242 128.71152344 56.08323242 128.65234375 58.03320312 C128.55795439 61.18344792 128.47237295 64.33368491 128.39453125 67.484375 C101.63912611 67.57778303 74.88374538 67.64833696 48.12821007 67.69162369 C35.70537239 67.71225596 23.28263597 67.74038941 10.85986328 67.78613281 C0.03319183 67.82598004 -10.79340628 67.85180297 -21.62014902 67.86072898 C-27.35376778 67.86594727 -33.08717673 67.87822625 -38.8207283 67.90729523 C-44.21660551 67.93443074 -49.61218634 67.94282367 -55.00812531 67.93680573 C-56.98906693 67.93790679 -58.97001839 67.94587164 -60.95090103 67.9611969 C-63.65542685 67.98109556 -66.35883334 67.97631464 -69.06338501 67.96539307 C-69.84744331 67.97704443 -70.63150161 67.9886958 -71.43931925 68.00070024 C-76.65504191 67.94376047 -79.58429269 66.77136553 -83.60546875 63.484375 C-87.46586014 59.1023091 -88.73175167 56.8168228 -88.71899414 51.02490234 C-88.71891861 49.88387054 -88.71884308 48.74283875 -88.71876526 47.56723022 C-88.71360397 46.33074738 -88.70844269 45.09426453 -88.703125 43.8203125 C-88.70171005 42.55796783 -88.7002951 41.29562317 -88.69883728 39.99502563 C-88.69417953 36.63799201 -88.68519283 33.281026 -88.6741333 29.92401123 C-88.66390645 26.49882594 -88.65933693 23.07363366 -88.65429688 19.6484375 C-88.64325113 12.92706457 -88.62650069 6.20572369 -88.60546875 -0.515625 C-84.94394618 0.293034 -82.48810199 1.70696111 -79.35546875 3.796875 C-78.37320313 4.42335938 -77.3909375 5.04984375 -76.37890625 5.6953125 C-74.80205738 6.71249107 -73.23566843 7.74764848 -71.70703125 8.8359375 C-65.0732804 13.00829663 -56.13901637 12.65815721 -48.60546875 11.484375 C-41.63857151 9.1830922 -35.63400018 5.08165675 -29.73828125 0.78125 C-21.41263676 -4.2812298 -8.63100975 -4.55479673 0 0 Z " fill="#A1B6EA" transform="translate(227.60546875,315.515625)"/>
<path d="M0 0 C116.82 0 233.64 0 354 0 C354 6.6 354 13.2 354 20 C237.18 20 120.36 20 0 20 C0 13.4 0 6.8 0 0 Z " fill="#E0CAD6" transform="translate(79,165)"/>
<path d="M0 0 C6.78627938 6.70331753 9.67033137 14.11490517 9.79296875 23.51171875 C9.77978908 25.67977413 9.75610656 27.84778762 9.72265625 30.015625 C9.71363281 31.12873047 9.70460938 32.24183594 9.6953125 33.38867188 C9.67187979 36.11858309 9.63601328 38.84838269 9.59765625 41.578125 C3.98765625 41.578125 -1.62234375 41.578125 -7.40234375 41.578125 C-7.428125 40.05960938 -7.45390625 38.54109375 -7.48046875 36.9765625 C-7.53676335 34.9687218 -7.59411038 32.96091041 -7.65234375 30.953125 C-7.66652344 29.95410156 -7.68070312 28.95507812 -7.6953125 27.92578125 C-7.89537653 21.88384757 -8.35224806 18.17125028 -12.40234375 13.578125 C-15.47983425 11.66509037 -17.26044083 11.57559102 -20.90234375 11.640625 C-25.06400382 12.75535538 -26.68212543 14.29786173 -29.40234375 17.578125 C-30.56278048 19.89899847 -30.54084991 21.27226207 -30.56347656 23.85668945 C-30.57308411 24.74133377 -30.58269165 25.62597809 -30.59259033 26.53742981 C-30.59896515 27.97489815 -30.59896515 27.97489815 -30.60546875 29.44140625 C-30.61401886 30.91760689 -30.61401886 30.91760689 -30.6227417 32.42362976 C-30.63219925 34.50921552 -30.63872867 36.59481627 -30.64257812 38.68041992 C-30.65227277 41.86729126 -30.68328475 45.05351479 -30.71484375 48.24023438 C-30.72137483 50.26562117 -30.72662489 52.29101258 -30.73046875 54.31640625 C-30.74281555 55.26864578 -30.75516235 56.22088531 -30.7678833 57.20198059 C-30.75145176 62.0973384 -30.73266179 65.67971993 -27.40234375 69.578125 C-24.61500982 70.89045626 -24.61500982 70.89045626 -21.46484375 71.640625 C-16.99136873 72.84352968 -14.34299398 73.91618321 -11.40234375 77.578125 C-10.64377939 81.53951666 -11.06855015 83.06630814 -13.27734375 86.453125 C-17.73398615 89.48364183 -21.16592065 89.51428785 -26.40234375 88.578125 C-34.72458265 85.76689252 -41.13879134 80.70782094 -45.55078125 73.12890625 C-48.19114971 67.63686417 -48.07901748 62.07458416 -48.15234375 56.078125 C-48.1783667 54.89992187 -48.20438965 53.72171875 -48.23120117 52.5078125 C-48.28034604 50.06787608 -48.32024676 47.62773659 -48.35107422 45.1875 C-48.39999952 41.74315846 -48.49227137 38.30250921 -48.59375 34.859375 C-48.63643964 32.76567112 -48.67690785 30.67192041 -48.71484375 28.578125 C-48.74481445 27.63130859 -48.77478516 26.68449219 -48.80566406 25.70898438 C-48.87845614 16.7777128 -46.8106729 8.80047559 -40.65234375 2.140625 C-29.22792722 -8.24134011 -12.49778087 -9.80913298 0 0 Z " fill="#575662" transform="translate(403.40234375,51.421875)"/>
<path d="M0 0 C6.78627938 6.70331753 9.67033137 14.11490517 9.79296875 23.51171875 C9.77978908 25.67977413 9.75610656 27.84778762 9.72265625 30.015625 C9.71363281 31.12873047 9.70460938 32.24183594 9.6953125 33.38867188 C9.67187979 36.11858309 9.63601328 38.84838269 9.59765625 41.578125 C3.98765625 41.578125 -1.62234375 41.578125 -7.40234375 41.578125 C-7.428125 40.05960938 -7.45390625 38.54109375 -7.48046875 36.9765625 C-7.53676335 34.9687218 -7.59411038 32.96091041 -7.65234375 30.953125 C-7.66652344 29.95410156 -7.68070312 28.95507812 -7.6953125 27.92578125 C-7.89537653 21.88384757 -8.35224806 18.17125028 -12.40234375 13.578125 C-15.47983425 11.66509037 -17.26044083 11.57559102 -20.90234375 11.640625 C-25.06400382 12.75535538 -26.68212543 14.29786173 -29.40234375 17.578125 C-30.56278048 19.89899847 -30.54084991 21.27226207 -30.56347656 23.85668945 C-30.57308411 24.74133377 -30.58269165 25.62597809 -30.59259033 26.53742981 C-30.59896515 27.97489815 -30.59896515 27.97489815 -30.60546875 29.44140625 C-30.61401886 30.91760689 -30.61401886 30.91760689 -30.6227417 32.42362976 C-30.63219925 34.50921552 -30.63872867 36.59481627 -30.64257812 38.68041992 C-30.65227277 41.86729126 -30.68328475 45.05351479 -30.71484375 48.24023438 C-30.72137483 50.26562117 -30.72662489 52.29101258 -30.73046875 54.31640625 C-30.74281555 55.26864578 -30.75516235 56.22088531 -30.7678833 57.20198059 C-30.75145176 62.0973384 -30.73266179 65.67971993 -27.40234375 69.578125 C-24.61500982 70.89045626 -24.61500982 70.89045626 -21.46484375 71.640625 C-16.99136873 72.84352968 -14.34299398 73.91618321 -11.40234375 77.578125 C-10.64377939 81.53951666 -11.06855015 83.06630814 -13.27734375 86.453125 C-17.73398615 89.48364183 -21.16592065 89.51428785 -26.40234375 88.578125 C-34.72458265 85.76689252 -41.13879134 80.70782094 -45.55078125 73.12890625 C-48.19114971 67.63686417 -48.07901748 62.07458416 -48.15234375 56.078125 C-48.1783667 54.89992187 -48.20438965 53.72171875 -48.23120117 52.5078125 C-48.28034604 50.06787608 -48.32024676 47.62773659 -48.35107422 45.1875 C-48.39999952 41.74315846 -48.49227137 38.30250921 -48.59375 34.859375 C-48.63643964 32.76567112 -48.67690785 30.67192041 -48.71484375 28.578125 C-48.74481445 27.63130859 -48.77478516 26.68449219 -48.80566406 25.70898438 C-48.87845614 16.7777128 -46.8106729 8.80047559 -40.65234375 2.140625 C-29.22792722 -8.24134011 -12.49778087 -9.80913298 0 0 Z " fill="#575662" transform="translate(275.40234375,51.421875)"/>
<path d="M0 0 C6.78627938 6.70331753 9.67033137 14.11490517 9.79296875 23.51171875 C9.77978908 25.67977413 9.75610656 27.84778762 9.72265625 30.015625 C9.71363281 31.12873047 9.70460937 32.24183594 9.6953125 33.38867188 C9.67187979 36.11858309 9.63601328 38.84838269 9.59765625 41.578125 C3.98765625 41.578125 -1.62234375 41.578125 -7.40234375 41.578125 C-7.428125 40.05960938 -7.45390625 38.54109375 -7.48046875 36.9765625 C-7.53676335 34.9687218 -7.59411038 32.96091041 -7.65234375 30.953125 C-7.66652344 29.95410156 -7.68070313 28.95507812 -7.6953125 27.92578125 C-7.89537653 21.88384757 -8.35224806 18.17125028 -12.40234375 13.578125 C-15.47983425 11.66509037 -17.26044083 11.57559102 -20.90234375 11.640625 C-25.06400382 12.75535538 -26.68212543 14.29786173 -29.40234375 17.578125 C-30.56278048 19.89899847 -30.54084991 21.27226207 -30.56347656 23.85668945 C-30.57308411 24.74133377 -30.58269165 25.62597809 -30.59259033 26.53742981 C-30.59896515 27.97489815 -30.59896515 27.97489815 -30.60546875 29.44140625 C-30.61401886 30.91760689 -30.61401886 30.91760689 -30.6227417 32.42362976 C-30.63219925 34.50921552 -30.63872867 36.59481627 -30.64257812 38.68041992 C-30.65227277 41.86729126 -30.68328475 45.05351479 -30.71484375 48.24023438 C-30.72137483 50.26562117 -30.72662489 52.29101258 -30.73046875 54.31640625 C-30.74281555 55.26864578 -30.75516235 56.22088531 -30.7678833 57.20198059 C-30.75145176 62.0973384 -30.73266179 65.67971993 -27.40234375 69.578125 C-24.61500982 70.89045626 -24.61500982 70.89045626 -21.46484375 71.640625 C-16.99136873 72.84352968 -14.34299398 73.91618321 -11.40234375 77.578125 C-10.64377939 81.53951666 -11.06855015 83.06630814 -13.27734375 86.453125 C-17.73398615 89.48364183 -21.16592065 89.51428785 -26.40234375 88.578125 C-34.72458265 85.76689252 -41.13879134 80.70782094 -45.55078125 73.12890625 C-48.19114971 67.63686417 -48.07901748 62.07458416 -48.15234375 56.078125 C-48.1783667 54.89992187 -48.20438965 53.72171875 -48.23120117 52.5078125 C-48.28034604 50.06787608 -48.32024676 47.62773659 -48.35107422 45.1875 C-48.39999952 41.74315846 -48.49227137 38.30250921 -48.59375 34.859375 C-48.63643964 32.76567112 -48.67690785 30.67192041 -48.71484375 28.578125 C-48.74481445 27.63130859 -48.77478516 26.68449219 -48.80566406 25.70898438 C-48.87845614 16.7777128 -46.8106729 8.80047559 -40.65234375 2.140625 C-29.22792722 -8.24134011 -12.49778087 -9.80913298 0 0 Z " fill="#575662" transform="translate(147.40234375,51.421875)"/>
<path d="M0 0 C4.74631185 1.04418861 6.55505733 3.70061597 9.125 7.6875 C15.39980258 18.99632499 18.83876089 31.73209661 17.125 44.6875 C15.3273144 49.26092237 13.20178477 51.96964349 9.125 54.6875 C8.61315355 57.69164569 8.61315355 57.69164569 8.61328125 61.2265625 C8.57783203 62.52851563 8.54238281 63.83046875 8.50585938 65.171875 C8.48275769 66.55207809 8.45997536 67.93228657 8.4375 69.3125 C8.40433555 70.70055352 8.3698467 72.08857607 8.33398438 73.4765625 C8.25126398 76.879916 8.18646345 80.28369626 8.125 83.6875 C2.845 83.6875 -2.435 83.6875 -7.875 83.6875 C-7.88917969 81.65207031 -7.90335937 79.61664063 -7.91796875 77.51953125 C-7.95275006 75.53699637 -7.98770786 73.55446036 -8.02758789 71.57202148 C-8.05070978 70.19974569 -8.06515003 68.82729391 -8.07055664 67.45483398 C-8.07988665 65.47615529 -8.12357019 63.49773376 -8.16796875 61.51953125 C-8.19153442 59.73639526 -8.19153442 59.73639526 -8.21557617 57.91723633 C-9.05398374 53.81087066 -10.75576516 52.38939332 -13.875 49.6875 C-18.22901056 43.799582 -17.50301722 37.7227041 -16.875 30.6875 C-15.1579537 21.09338256 -11.24655003 2.6893924 0 0 Z " fill="#FA7189" transform="translate(326.875,194.3125)"/>
<path d="M0 0 C4.74631185 1.04418861 6.55505733 3.70061597 9.125 7.6875 C15.39980258 18.99632499 18.83876089 31.73209661 17.125 44.6875 C15.3273144 49.26092237 13.20178477 51.96964349 9.125 54.6875 C8.61315355 57.69164569 8.61315355 57.69164569 8.61328125 61.2265625 C8.57783203 62.52851563 8.54238281 63.83046875 8.50585938 65.171875 C8.48275769 66.55207809 8.45997536 67.93228657 8.4375 69.3125 C8.40433555 70.70055352 8.3698467 72.08857607 8.33398438 73.4765625 C8.25126398 76.879916 8.18646345 80.28369626 8.125 83.6875 C2.845 83.6875 -2.435 83.6875 -7.875 83.6875 C-7.88917969 81.65207031 -7.90335938 79.61664063 -7.91796875 77.51953125 C-7.95275006 75.53699637 -7.98770786 73.55446036 -8.02758789 71.57202148 C-8.05070978 70.19974569 -8.06515003 68.82729391 -8.07055664 67.45483398 C-8.07988665 65.47615529 -8.12357019 63.49773376 -8.16796875 61.51953125 C-8.19153442 59.73639526 -8.19153442 59.73639526 -8.21557617 57.91723633 C-9.05398374 53.81087066 -10.75576516 52.38939332 -13.875 49.6875 C-18.22901056 43.799582 -17.50301722 37.7227041 -16.875 30.6875 C-15.1579537 21.09338256 -11.24655003 2.6893924 0 0 Z " fill="#FA7189" transform="translate(255.875,194.3125)"/>
<path d="M0 0 C4.74631185 1.04418861 6.55505733 3.70061597 9.125 7.6875 C15.39980258 18.99632499 18.83876089 31.73209661 17.125 44.6875 C15.3273144 49.26092237 13.20178477 51.96964349 9.125 54.6875 C8.61315355 57.69164569 8.61315355 57.69164569 8.61328125 61.2265625 C8.57783203 62.52851563 8.54238281 63.83046875 8.50585938 65.171875 C8.48275769 66.55207809 8.45997536 67.93228657 8.4375 69.3125 C8.40433555 70.70055352 8.3698467 72.08857607 8.33398438 73.4765625 C8.25126398 76.879916 8.18646345 80.28369626 8.125 83.6875 C2.845 83.6875 -2.435 83.6875 -7.875 83.6875 C-7.88917969 81.65207031 -7.90335938 79.61664063 -7.91796875 77.51953125 C-7.95275006 75.53699637 -7.98770786 73.55446036 -8.02758789 71.57202148 C-8.05070978 70.19974569 -8.06515003 68.82729391 -8.07055664 67.45483398 C-8.07988665 65.47615529 -8.12357019 63.49773376 -8.16796875 61.51953125 C-8.19153442 59.73639526 -8.19153442 59.73639526 -8.21557617 57.91723633 C-9.05398374 53.81087066 -10.75576516 52.38939332 -13.875 49.6875 C-18.22901056 43.799582 -17.50301722 37.7227041 -16.875 30.6875 C-15.1579537 21.09338256 -11.24655003 2.6893924 0 0 Z " fill="#FA7189" transform="translate(184.875,194.3125)"/>
<path d="M0 0 C19.8 0 39.6 0 60 0 C60 8.25 60 16.5 60 25 C59.67 25 59.34 25 59 25 C59 22.36 59 19.72 59 17 C39.53 17 20.06 17 0 17 C0 11.39 0 5.78 0 0 Z " fill="#E1CCD8" transform="translate(373,329)"/>
<path d="M0 0 C0 5.28 0 10.56 0 16 C-2.0728125 16.3403125 -2.0728125 16.3403125 -4.1875 16.6875 C-10.09895547 17.98876378 -12.70090868 21.05136302 -16 26 C-16.36887189 28.90644244 -16.36887189 28.90644244 -16.4140625 32.19921875 C-16.45273437 33.40771484 -16.49140625 34.61621094 -16.53125 35.86132812 C-16.5621875 37.12396484 -16.593125 38.38660156 -16.625 39.6875 C-16.66367187 40.96173828 -16.70234375 42.23597656 -16.7421875 43.54882812 C-16.83657398 46.69897694 -16.91938035 49.8494688 -17 53 C-22.28 53 -27.56 53 -33 53 C-33.09253174 49.03398668 -33.17194289 45.07077066 -33.21972656 41.10424805 C-33.24940781 39.10243949 -33.30027058 37.10098081 -33.3515625 35.09960938 C-33.46343186 23.99657524 -31.44450992 16.92525423 -23.859375 8.7890625 C-16.5469636 1.75317086 -10.09334645 -0.30585898 0 0 Z " fill="#7D99D1" transform="translate(373,330)"/>
<path d="M0 0 C5.28 0 10.56 0 16 0 C16.02464775 5.53588533 16.04283496 11.071739 16.05493164 16.60766602 C16.05997244 18.4924373 16.06680498 20.37720465 16.07543945 22.26196289 C16.08751617 24.96501636 16.09323068 27.66801831 16.09765625 30.37109375 C16.10281754 31.21900986 16.10797882 32.06692596 16.11329651 32.9405365 C16.11349195 34.96071068 16.06206211 36.98077934 16 39 C15 40 15 40 13.27920622 40.1241985 C12.52318304 40.12381878 11.76715986 40.12343906 10.98822689 40.12304783 C9.68419207 40.1260344 9.68419207 40.1260344 8.35381311 40.12908131 C7.38787983 40.12616847 6.42194654 40.12325563 5.42674255 40.12025452 C3.90025411 40.12153615 3.90025411 40.12153615 2.34292752 40.12284368 C-1.0950482 40.12450155 -4.53297599 40.11897212 -7.97094727 40.11352539 C-10.42426553 40.11324356 -12.87758388 40.11340117 -15.3309021 40.1139679 C-20.62711271 40.11419622 -25.92330818 40.11134482 -31.21951485 40.10573006 C-38.87702293 40.09761723 -46.53452506 40.09500006 -54.19203698 40.09374207 C-66.61460029 40.0915512 -79.03715705 40.08489019 -91.4597168 40.07543945 C-103.53002896 40.06626622 -115.60033935 40.05918495 -127.6706543 40.05493164 C-128.78590306 40.05453756 -128.78590306 40.05453756 -129.9236821 40.05413551 C-133.6534452 40.05283051 -137.38320831 40.05156679 -141.11297143 40.05032361 C-172.07531905 40.03994993 -203.03765853 40.02225656 -234 40 C-234 39.67 -234 39.34 -234 39 C-156.78 39 -79.56 39 0 39 C0 26.13 0 13.26 0 0 Z " fill="#E7CAD5" transform="translate(340,383)"/>
<path d="M0 0 C0.99 0.33 1.98 0.66 3 1 C7.7565662 1.15343762 11.27469769 0.94506046 16 0 C16 9.57 16 19.14 16 29 C10.72 29 5.44 29 0 29 C0 19.43 0 9.86 0 0 Z " fill="#585762" transform="translate(319,249)"/>
<path d="M0 0 C0.99 0.33 1.98 0.66 3 1 C7.7565662 1.15343762 11.27469769 0.94506046 16 0 C16 9.57 16 19.14 16 29 C10.72 29 5.44 29 0 29 C0 19.43 0 9.86 0 0 Z " fill="#585762" transform="translate(248,249)"/>
<path d="M0 0 C0.99 0.33 1.98 0.66 3 1 C7.7565662 1.15343762 11.27469769 0.94506046 16 0 C16 9.57 16 19.14 16 29 C10.72 29 5.44 29 0 29 C0 19.43 0 9.86 0 0 Z " fill="#585762" transform="translate(177,249)"/>
</svg>
