<?xml version="1.0" encoding="UTF-8"?>
<svg version="1.1"
xmlns="http://www.w3.org/2000/svg"
width="128"
height="130"
viewBox="0 0 128 130">

  <defs>
    <linearGradient id="goldGradient" x1="0%" y1="0%" x2="100%" y2="100%">
      <stop offset="0%" stop-color="#FFF8C9"/>
      <stop offset="20%" stop-color="#FFE082"/>
      <stop offset="45%" stop-color="#FFD700"/>
      <stop offset="70%" stop-color="#D4AF37"/>
      <stop offset="100%" stop-color="#8B6B00"/>
    </linearGradient>

    <filter id="goldEmboss" x="-50%" y="-50%" width="200%" height="200%">
      <feDropShadow
        dx="0"
        dy="0"
        stdDeviation="2"
        flood-color="#FFD700"
        flood-opacity="0.9"
      />

      <feDropShadow
        dx="0"
        dy="1"
        stdDeviation="1"
        flood-color="#FFF4B0"
        flood-opacity="0.8"
      />
    </filter>
  </defs>

  <path d="M0 0 C1.02772018 0.00930542 1.02772018 0.00930542 2.07620239 0.01879883 C22.22877996 0.23301578 40.40511609 5.91565875 55.6875 19.5 C57.12532346 16.22592007 57.92045851 13.50148052 58.125 9.9375 C58.40017392 7.18576077 58.69853101 5.47619624 59.875 2.9375 C61.6875 1.5 61.6875 1.5 64.6875 1.0625 C67.6875 1.5 67.6875 1.5 69.5625 2.5 C71.43396513 5.82704912 71.33190296 8.85418865 70.6875 12.5 C69.55512611 15.63330697 68.27110793 18.6416158 66.87890625 21.66796875 C65.74043908 24.3741612 64.93590885 26.57641894 64.6875 29.5 C65.49759415 31.60035979 65.49759415 31.60035979 66.875 33.5625 C76.50065211 49.59631605 77.38287002 72.15469443 73.96875 90.203125 C73.08135669 93.45212955 72.06073399 96.42829239 70.6875 99.5 C70.336875 100.3146875 69.98625 101.129375 69.625 101.96875 C63.91780898 113.54166512 54.19436616 122.35005128 42.11352539 126.63916016 C23.98606196 132.59030218 6.07841232 131.42369436 -11.203125 123.83984375 C-14.65753273 122.25222272 -14.65753273 122.25222272 -18.3125 121.5 C-20.07377801 122.58545188 -20.07377801 122.58545188 -21.625 124.25 C-27.13099348 129.26605339 -32.40796922 131.09988518 -39.8125 130.8515625 C-44.91233207 130.13439862 -48.74451765 128.1169818 -52.3125 124.4375 C-53.91004021 119.74472564 -54.16544465 115.38695335 -53.3125 110.5 C-51.14548396 106.17365237 -48.41246783 104.00767746 -44.0625 102 C-34.85613042 100.77248406 -28.28585906 102.9025951 -20.3125 107.5 C-16.78362451 97.51261653 -14.10573305 87.53019893 -18.31640625 77.3359375 C-19.34436703 75.4412647 -20.48763031 74.02605287 -21.9375 72.4375 C-24.74305688 68.96746913 -25.3125 66.93460929 -25.3125 62.5 C-24.3125 60.0625 -24.3125 60.0625 -22.3125 58.5 C-18.10357054 57.79851176 -16.11040549 57.95597353 -12.5625 60.375 C-5.81482766 69.74676714 -6.28215622 81.42076724 -7.88671875 92.4453125 C-9.25192336 99.59638427 -11.01999651 106.58997175 -13.3125 113.5 C2.50219349 121.20928218 19.84230825 123.9573543 36.9375 118.875 C47.37405439 114.94197816 55.54877833 109.61685829 60.6875 99.5 C68.37320215 81.05827654 68.84778984 61.69493981 61.78515625 42.9375 C60.60629845 40.31968055 59.21116245 37.93091445 57.6875 35.5 C56.97400391 36.13615234 56.97400391 36.13615234 56.24609375 36.78515625 C38.95331188 51.27542467 15.62769333 55.98518754 -6.44140625 54.19140625 C-20.08614255 52.90367467 -32.30671816 50.40395899 -41.75 39.75 C-44.5848083 33.85359874 -45.06526934 28.10034476 -43.1875 21.8125 C-39.56623282 12.63000107 -33.76525559 7.34370155 -24.74365234 3.36791992 C-16.42516814 0.34135789 -8.80331491 -0.12477055 0 0 Z M-31.3125 17.5 C-33.77592873 20.53726271 -35.13158759 22.51992702 -35.3125 26.5 C-34.46718735 31.30336481 -32.64914444 34.64419363 -28.875 37.75 C-15.5539209 46.78666549 2.19167152 46.84841726 17.6171875 45.0390625 C30.91836505 42.47534347 42.17019121 36.95677482 52.6875 28.5 C41.15158417 15.84770522 22.52458766 8.51085915 5.63061523 7.35986328 C-8.10155577 6.76442236 -20.86181609 7.42705165 -31.3125 17.5 Z M-45.3125 112.5 C-46.31728037 114.3522367 -46.31728037 114.3522367 -46.3125 116.5 C-44.54386411 120.19759178 -44.54386411 120.19759178 -41.3125 122.5 C-35.20564771 123.00890436 -32.18290228 122.5775461 -27.3125 118.5 C-25.47949091 116.39424357 -25.47949091 116.39424357 -24.3125 114.5 C-27.30414977 111.03598447 -30.18598039 109.69734102 -34.75390625 109.2734375 C-40.82883446 108.87155738 -40.82883446 108.87155738 -45.3125 112.5 Z " fill="#000000" transform="translate(53.3125,-0.49999999999999994)"/>
</svg>